HIERARCHY
ROOT Hips
{
 OFFSET 0.000000 0.000000 0.000000
 CHANNELS 6 Xposition Yposition Zposition Yrotation Xrotation Zrotation
 JOINT Chest
 {
  OFFSET 0.000000 9.588913 -0.003946
  CHANNELS 3 Yrotation Xrotation Zrotation
  JOINT Chest2
  {
   OFFSET 0.000000 9.541882 0.008053
   CHANNELS 3 Yrotation Xrotation Zrotation
   JOINT Chest3
   {
    OFFSET 0.000000 9.501360 0.000000
    CHANNELS 3 Yrotation Xrotation Zrotation
    JOINT Chest4
    {
     OFFSET 0.000000 9.491660 0.000000
     CHANNELS 3 Yrotation Xrotation Zrotation
     JOINT Neck
     {
      OFFSET 0.000000 14.331917 0.000000
      CHANNELS 3 Yrotation Xrotation Zrotation
      JOINT Head
      {
       OFFSET 0.000000 8.884799 0.017034
       CHANNELS 3 Yrotation Xrotation Zrotation
       End Site
       {
        OFFSET 0.000000 16.896195 0.008993
       }
      }
     }
     JOINT RightCollar
     {
      OFFSET -2.923010 9.499495 0.000000
      CHANNELS 3 Yrotation Xrotation Zrotation
      JOINT RightShoulder
      {
       OFFSET -13.795216 0.000000 0.000000
       CHANNELS 3 Yrotation Xrotation Zrotation
       JOINT RightElbow
       {
        OFFSET -30.272209 0.000000 0.000000
        CHANNELS 3 Yrotation Xrotation Zrotation
        JOINT RightWrist
        {
         OFFSET -24.478199 0.000000 0.000000
         CHANNELS 3 Yrotation Xrotation Zrotation
         End Site
         {
          OFFSET -18.090752 0.000000 0.000000
         }
        }
       }
      }
     }
     JOINT LeftCollar
     {
      OFFSET 2.923010 9.499495 0.000000
      CHANNELS 3 Yrotation Xrotation Zrotation
      JOINT LeftShoulder
      {
       OFFSET 13.795216 0.000000 0.000000
       CHANNELS 3 Yrotation Xrotation Zrotation
       JOINT LeftElbow
       {
        OFFSET 30.272209 0.000000 0.000000
        CHANNELS 3 Yrotation Xrotation Zrotation
        JOINT LeftWrist
        {
         OFFSET 24.478199 0.000000 0.000000
         CHANNELS 3 Yrotation Xrotation Zrotation
         End Site
         {
          OFFSET 18.090752 0.000000 0.000000
         }
        }
       }
      }
     }
    }
   }
  }
 }
 JOINT RightHip
 {
  OFFSET -7.826875 0.019532 0.001973
  CHANNELS 3 Yrotation Xrotation Zrotation
  JOINT RightKnee
  {
   OFFSET 0.000000 -40.546152 -0.001885
   CHANNELS 3 Yrotation Xrotation Zrotation
   JOINT RightAnkle
   {
    OFFSET 0.000000 -39.417092 -0.003189
    CHANNELS 3 Yrotation Xrotation Zrotation
    JOINT RightToe
    {
     OFFSET 0.000000 -7.579396 17.243563
     CHANNELS 3 Yrotation Xrotation Zrotation
     End Site
     {
      OFFSET 0.000000 -1.500329 6.694466
     }
    }
   }
  }
 }
 JOINT LeftHip
 {
  OFFSET 7.826875 0.019532 0.001973
  CHANNELS 3 Yrotation Xrotation Zrotation
  JOINT LeftKnee
  {
   OFFSET 0.000000 -40.546152 -0.001885
   CHANNELS 3 Yrotation Xrotation Zrotation
   JOINT LeftAnkle
   {
    OFFSET 0.000000 -39.417092 -0.003189
    CHANNELS 3 Yrotation Xrotation Zrotation
    JOINT LeftToe
    {
     OFFSET 0.000000 -7.579396 17.243563
     CHANNELS 3 Yrotation Xrotation Zrotation
     End Site
     {
      OFFSET 0.000000 -1.500329 6.694466
     }
    }
   }
  }
 }
}
MOTION
Frames: 10
Frame Time: 0.008333
0.000000 87.345680 0.000000 0.000000 -5.767889 0.000000 0.000000 11.653876 0.000000 0.000000 -5.885988 0.000000 0.000000 -0.000000 0.000000 0.000000 -0.000000 0.000000 0.000000 12.528808 0.000000 0.000000 0.711711 0.000000 0.000000 -0.000000 0.000000 0.000000 -0.000000 0.000000 2.309063 -0.000000 0.000000 -2.309063 -0.000000 -0.000000 0.000000 -0.000000 0.000000 0.000000 0.000000 0.000000 -2.309063 0.000000 0.000000 2.309063 -0.000000 0.000000 0.000000 8.520374 0.000000 0.000000 1.905768 0.000000 -0.000000 -4.658254 0.000000 0.000000 -0.000000 0.000000 0.000000 8.520374 0.000000 0.000000 1.905768 0.000000 -0.000000 -4.658254 0.000000 0.000000 -0.000000 0.000000
10.619956 88.282230 17.588356 -35.615257 -3.248945 2.060540 1.391476 4.305948 2.294517 0.775227 2.465699 1.140792 0.976927 3.079656 1.431531 0.775227 2.465699 1.140792 -3.442826 33.025743 -0.769026 -3.707351 12.000021 -0.100095 1.018879 -1.196027 -1.668496 -12.430278 -23.828953 81.646659 42.256574 -21.633686 8.934550 13.933828 -6.922092 -19.277502 -1.759371 -1.232568 -5.796011 0.706097 -4.572403 -89.385209 -1.196725 1.586491 -3.405121 -8.083046 -0.404183 6.932393 -5.005522 -0.007997 -10.319233 -0.240964 9.312946 -0.196165 1.473664 -6.886458 4.137437 -0.051623 0.428411 -0.015172 6.800288 1.879002 7.854138 0.009772 3.849253 0.555422 1.924699 -2.686274 -8.464632 -0.032796 -0.332832 -0.013219
10.626466 88.282228 17.585945 -35.634173 -3.247416 2.065033 1.388718 4.307748 2.297477 0.773795 2.467151 1.143486 0.975160 3.081469 1.434894 0.773795 2.467151 1.143486 -3.475459 33.036715 -0.776159 -3.742884 12.016785 -0.101006 1.037556 -1.213984 -1.663816 -12.421811 -23.867918 81.637118 42.260424 -21.655113 8.911488 13.933914 -6.920737 -19.305166 -1.741431 -1.236164 -5.802186 0.700507 -4.572004 -89.374802 -1.195330 1.574545 -3.408245 -8.079651 -0.404374 6.925827 -4.986856 -0.016348 -10.326963 -0.237584 9.315285 -0.194971 1.475242 -6.884183 4.138930 -0.052586 0.429304 -0.015450 6.814131 1.878497 7.847866 0.012339 3.846977 0.553827 1.929122 -2.684922 -8.460371 -0.034439 -0.332621 -0.013758
10.633938 88.282306 17.583400 -35.657066 -3.246579 2.069590 1.387401 4.309829 2.300264 0.773307 2.468795 1.145880 0.974571 3.083520 1.437888 0.773307 2.468795 1.145880 -3.505389 33.046392 -0.782553 -3.775508 12.031636 -0.101673 1.053542 -1.233455 -1.661106 -12.409314 -23.903627 81.623041 42.261952 -21.680001 8.892800 13.924514 -6.924814 -19.333568 -1.726942 -1.237658 -5.804966 0.699302 -4.574713 -89.366144 -1.193282 1.558730 -3.409610 -8.077054 -0.403568 6.915941 -4.961797 -0.025458 -10.333869 -0.234050 9.319853 -0.195115 1.472548 -6.881487 4.140766 -0.053508 0.429685 -0.015090 6.834380 1.879516 7.842073 0.014162 3.842614 0.550760 1.933144 -2.683259 -8.455249 -0.036219 -0.331836 -0.013896
10.642213 88.282511 17.580893 -35.679050 -3.246109 2.074523 1.387476 4.312347 2.302914 0.773429 2.470941 1.147636 0.974743 3.086199 1.440089 0.773429 2.470941 1.147636 -3.533118 33.054594 -0.786958 -3.806063 12.044356 -0.100577 1.067953 -1.252673 -1.657278 -12.398285 -23.940186 81.603090 42.259812 -21.707532 8.877583 13.914081 -6.931365 -19.357655 -1.714024 -1.239303 -5.803612 0.699675 -4.579307 -89.362864 -1.188922 1.540719 -3.407389 -8.078783 -0.404260 6.905784 -4.935543 -0.035547 -10.341171 -0.228797 9.327132 -0.195664 1.465197 -6.878971 4.144139 -0.053994 0.429365 -0.015264 6.854343 1.881420 7.835424 0.016495 3.836378 0.548379 1.935023 -2.680770 -8.450526 -0.037686 -0.331259 -0.013835
10.650803 88.282881 17.578541 -35.698601 -3.246256 2.078965 1.389012 4.315786 2.305242 0.774227 2.473584 1.148815 0.975757 3.089497 1.441574 0.774227 2.473584 1.148815 -3.559236 33.062419 -0.787739 -3.835604 12.056529 -0.095752 1.081634 -1.269135 -1.651024 -12.394181 -23.980777 81.582783 42.256565 -21.732924 8.863788 13.904205 -6.933166 -19.377221 -1.702725 -1.244768 -5.799795 0.701011 -4.582801 -89.364154 -1.185163 1.522312 -3.403715 -8.081590 -0.408883 6.900114 -4.912032 -0.045365 -10.349694 -0.222010 9.335141 -0.194055 1.457765 -6.876099 4.147182 -0.053553 0.428076 -0.015541 6.869701 1.882496 7.828692 0.022461 3.832797 0.546676 1.934968 -2.679350 -8.446255 -0.038628 -0.331263 -0.013635
10.659312 88.283438 17.576502 -35.717193 -3.247197 2.083071 1.392032 4.319910 2.306605 0.775868 2.476263 1.149503 0.977822 3.092840 1.442452 0.775868 2.476263 1.149503 -3.583528 33.071261 -0.782939 -3.864350 12.070120 -0.085053 1.092910 -1.281346 -1.645024 -12.398249 -24.023409 81.569769 42.258779 -21.750540 8.849652 13.891525 -6.930050 -19.398688 -1.694670 -1.253480 -5.795126 0.705268 -4.582213 -89.369045 -1.184365 1.505447 -3.398988 -8.080480 -0.418939 6.901621 -4.889625 -0.053305 -10.359413 -0.217812 9.341494 -0.190551 1.453444 -6.872151 4.149446 -0.052964 0.426184 -0.015830 6.881685 1.883069 7.822507 0.030830 3.832405 0.543859 1.935701 -2.678912 -8.441269 -0.039424 -0.332119 -0.013492
10.667711 88.284153 17.574585 -35.735278 -3.246529 2.087574 1.396009 4.323495 2.307593 0.778039 2.478281 1.149858 0.980546 3.095354 1.442916 0.778039 2.478281 1.149858 -3.605824 33.081832 -0.773246 -3.891968 12.086112 -0.069297 1.099214 -1.291588 -1.642018 -12.403228 -24.063763 81.565641 42.268370 -21.759251 8.828711 13.876147 -6.926599 -19.421664 -1.688561 -1.263330 -5.792314 0.710561 -4.576027 -89.375077 -1.184542 1.487830 -3.393879 -8.081106 -0.433000 6.904851 -4.867530 -0.061290 -10.369611 -0.218354 9.345060 -0.187310 1.452967 -6.866911 4.151568 -0.052595 0.424348 -0.016044 6.891355 1.881759 7.815555 0.036384 3.833033 0.541265 1.939816 -2.677760 -8.436209 -0.040134 -0.334290 -0.013818
10.675646 88.284976 17.572699 -35.750753 -3.244090 2.091716 1.400587 4.326318 2.309218 0.780501 2.479735 1.150479 0.983634 3.097163 1.443712 0.780501 2.479735 1.150479 -3.627205 33.093937 -0.760426 -3.919284 12.104266 -0.050233 1.099057 -1.302294 -1.642362 -12.403115 -24.100754 81.569267 42.284299 -21.762538 8.795955 13.859669 -6.922819 -19.445693 -1.684649 -1.271979 -5.791483 0.713595 -4.570409 -89.380266 -1.182168 1.467283 -3.390752 -8.087104 -0.447238 6.905735 -4.852525 -0.068770 -10.378787 -0.219929 9.343359 -0.185313 1.456276 -6.859787 4.153650 -0.052254 0.422960 -0.016170 6.895518 1.879512 7.809507 0.036750 3.832250 0.537216 1.949697 -2.674832 -8.430006 -0.040803 -0.337405 -0.015032
10.682725 88.285849 17.570937 -35.764955 -3.241297 2.095147 1.405628 4.328388 2.310808 0.783351 2.480723 1.151182 0.987204 3.098386 1.444613 0.783351 2.480723 1.151182 -3.646913 33.106916 -0.745193 -3.945266 12.123612 -0.028825 1.095837 -1.315262 -1.642563 -12.398231 -24.133148 81.578082 42.306098 -21.764163 8.753638 13.840406 -6.917213 -19.477167 -1.683292 -1.276054 -5.790596 0.715105 -4.570130 -89.383086 -1.178965 1.446975 -3.391252 -8.092557 -0.458164 6.905955 -4.846946 -0.074698 -10.386114 -0.218334 9.336197 -0.184938 1.462108 -6.850875 4.156440 -0.052107 0.422191 -0.016826 6.896660 1.878221 7.805062 0.035643 3.829357 0.531571 1.962246 -2.670083 -8.422112 -0.041062 -0.340875 -0.017096
